G04 EAGLE Gerber RS-274X export*
G75*
%MOMM*%
%FSLAX34Y34*%
%LPD*%
%IN*%
%IPPOS*%
%AMOC8*
5,1,8,0,0,1.08239X$1,22.5*%
G01*
G04 Define Apertures*
%ADD10C,0.254000*%
D10*
X299720Y116840D02*
X1148080Y116840D01*
X1148080Y817880D01*
X299720Y817880D01*
X299720Y116840D01*
X761780Y314420D02*
X761799Y313984D01*
X761856Y313552D01*
X761950Y313126D01*
X762082Y312710D01*
X762248Y312307D01*
X762450Y311920D01*
X762684Y311552D01*
X762950Y311206D01*
X763244Y310884D01*
X763566Y310590D01*
X763912Y310324D01*
X764280Y310090D01*
X764667Y309888D01*
X765070Y309722D01*
X765486Y309590D01*
X765912Y309496D01*
X766344Y309439D01*
X766780Y309420D01*
X792780Y309420D01*
X793216Y309439D01*
X793648Y309496D01*
X794074Y309590D01*
X794490Y309722D01*
X794893Y309888D01*
X795280Y310090D01*
X795648Y310324D01*
X795994Y310590D01*
X796316Y310884D01*
X796610Y311206D01*
X796876Y311552D01*
X797110Y311920D01*
X797312Y312307D01*
X797478Y312710D01*
X797610Y313126D01*
X797704Y313552D01*
X797761Y313984D01*
X797780Y314420D01*
X797761Y314856D01*
X797704Y315288D01*
X797610Y315714D01*
X797478Y316130D01*
X797312Y316533D01*
X797110Y316920D01*
X796876Y317288D01*
X796610Y317634D01*
X796316Y317956D01*
X795994Y318250D01*
X795648Y318516D01*
X795280Y318750D01*
X794893Y318952D01*
X794490Y319118D01*
X794074Y319250D01*
X793648Y319344D01*
X793216Y319401D01*
X792780Y319420D01*
X766780Y319420D01*
X766344Y319401D01*
X765912Y319344D01*
X765486Y319250D01*
X765070Y319118D01*
X764667Y318952D01*
X764280Y318750D01*
X763912Y318516D01*
X763566Y318250D01*
X763244Y317956D01*
X762950Y317634D01*
X762684Y317288D01*
X762450Y316920D01*
X762248Y316533D01*
X762082Y316130D01*
X761950Y315714D01*
X761856Y315288D01*
X761799Y314856D01*
X761780Y314420D01*
X822780Y274420D02*
X822799Y273984D01*
X822856Y273552D01*
X822950Y273126D01*
X823082Y272710D01*
X823248Y272307D01*
X823450Y271920D01*
X823684Y271552D01*
X823950Y271206D01*
X824244Y270884D01*
X824566Y270590D01*
X824912Y270324D01*
X825280Y270090D01*
X825667Y269888D01*
X826070Y269722D01*
X826486Y269590D01*
X826912Y269496D01*
X827344Y269439D01*
X827780Y269420D01*
X828216Y269439D01*
X828648Y269496D01*
X829074Y269590D01*
X829490Y269722D01*
X829893Y269888D01*
X830280Y270090D01*
X830648Y270324D01*
X830994Y270590D01*
X831316Y270884D01*
X831610Y271206D01*
X831876Y271552D01*
X832110Y271920D01*
X832312Y272307D01*
X832478Y272710D01*
X832610Y273126D01*
X832704Y273552D01*
X832761Y273984D01*
X832780Y274420D01*
X832780Y296420D01*
X832761Y296856D01*
X832704Y297288D01*
X832610Y297714D01*
X832478Y298130D01*
X832312Y298533D01*
X832110Y298920D01*
X831876Y299288D01*
X831610Y299634D01*
X831316Y299956D01*
X830994Y300250D01*
X830648Y300516D01*
X830280Y300750D01*
X829893Y300952D01*
X829490Y301118D01*
X829074Y301250D01*
X828648Y301344D01*
X828216Y301401D01*
X827780Y301420D01*
X827344Y301401D01*
X826912Y301344D01*
X826486Y301250D01*
X826070Y301118D01*
X825667Y300952D01*
X825280Y300750D01*
X824912Y300516D01*
X824566Y300250D01*
X824244Y299956D01*
X823950Y299634D01*
X823684Y299288D01*
X823450Y298920D01*
X823248Y298533D01*
X823082Y298130D01*
X822950Y297714D01*
X822856Y297288D01*
X822799Y296856D01*
X822780Y296420D01*
X822780Y274420D01*
X763780Y251420D02*
X763799Y250984D01*
X763856Y250552D01*
X763950Y250126D01*
X764082Y249710D01*
X764248Y249307D01*
X764450Y248920D01*
X764684Y248552D01*
X764950Y248206D01*
X765244Y247884D01*
X765566Y247590D01*
X765912Y247324D01*
X766280Y247090D01*
X766667Y246888D01*
X767070Y246722D01*
X767486Y246590D01*
X767912Y246496D01*
X768344Y246439D01*
X768780Y246420D01*
X790780Y246420D01*
X791216Y246439D01*
X791648Y246496D01*
X792074Y246590D01*
X792490Y246722D01*
X792893Y246888D01*
X793280Y247090D01*
X793648Y247324D01*
X793994Y247590D01*
X794316Y247884D01*
X794610Y248206D01*
X794876Y248552D01*
X795110Y248920D01*
X795312Y249307D01*
X795478Y249710D01*
X795610Y250126D01*
X795704Y250552D01*
X795761Y250984D01*
X795780Y251420D01*
X795761Y251856D01*
X795704Y252288D01*
X795610Y252714D01*
X795478Y253130D01*
X795312Y253533D01*
X795110Y253920D01*
X794876Y254288D01*
X794610Y254634D01*
X794316Y254956D01*
X793994Y255250D01*
X793648Y255516D01*
X793280Y255750D01*
X792893Y255952D01*
X792490Y256118D01*
X792074Y256250D01*
X791648Y256344D01*
X791216Y256401D01*
X790780Y256420D01*
X768780Y256420D01*
X768344Y256401D01*
X767912Y256344D01*
X767486Y256250D01*
X767070Y256118D01*
X766667Y255952D01*
X766280Y255750D01*
X765912Y255516D01*
X765566Y255250D01*
X765244Y254956D01*
X764950Y254634D01*
X764684Y254288D01*
X764450Y253920D01*
X764248Y253533D01*
X764082Y253130D01*
X763950Y252714D01*
X763856Y252288D01*
X763799Y251856D01*
X763780Y251420D01*
M02*
