G04 EAGLE Gerber RS-274X export*
G75*
%MOMM*%
%FSLAX34Y34*%
%LPD*%
%INSoldermask Bottom*%
%IPPOS*%
%AMOC8*
5,1,8,0,0,1.08239X$1,22.5*%
G01*
G04 Define Apertures*
%ADD10C,3.251200*%
%ADD11C,1.603200*%
%ADD12R,2.453200X2.453200*%
%ADD13C,2.453200*%
%ADD14C,2.183200*%
%ADD15C,2.403200*%
%ADD16C,2.203200*%
%ADD17R,1.524000X1.524000*%
%ADD18C,1.524000*%
%ADD19C,2.003200*%
%ADD20R,1.853200X1.853200*%
%ADD21C,1.853200*%
%ADD22C,1.463200*%
%ADD23R,2.183200X2.183200*%
%ADD24C,2.138200*%
%ADD25R,2.003200X2.003200*%
D10*
X386080Y208280D03*
X386080Y721360D03*
X1041400Y731520D03*
X1041400Y223520D03*
D11*
X926660Y464820D03*
X871660Y464820D03*
X706560Y472440D03*
X761560Y472440D03*
X532316Y472440D03*
X587316Y472440D03*
X353500Y469900D03*
X408500Y469900D03*
D12*
X741240Y734060D03*
D13*
X940240Y734060D03*
D12*
X461840Y731520D03*
D13*
X660840Y731520D03*
D14*
X1038860Y441220D03*
X1038860Y666220D03*
D15*
X790780Y314420D02*
X768780Y314420D01*
D16*
X827780Y295420D02*
X827780Y275420D01*
X789780Y251420D02*
X769780Y251420D01*
D17*
X381000Y281940D03*
D18*
X381000Y307340D03*
X381000Y332740D03*
D19*
X627780Y617220D03*
X677780Y617220D03*
D20*
X1041400Y317500D03*
D21*
X1041400Y368300D03*
D22*
X342260Y622300D03*
X414660Y622300D03*
X476880Y622300D03*
X549280Y622300D03*
D23*
X523200Y319080D03*
D24*
X503200Y259080D03*
D14*
X523200Y199080D03*
X645200Y199080D03*
X645200Y319080D03*
D25*
X779780Y589280D03*
D19*
X792480Y640080D03*
X805180Y589280D03*
X817880Y640080D03*
X830580Y589280D03*
X843280Y640080D03*
X855980Y589280D03*
D20*
X911860Y220980D03*
D21*
X962660Y220980D03*
M02*
