G04 EAGLE Gerber RS-274X export*
G75*
%MOMM*%
%FSLAX34Y34*%
%LPD*%
%INTop Copper*%
%IPPOS*%
%AMOC8*
5,1,8,0,0,1.08239X$1,22.5*%
G01*
G04 Define Apertures*
%ADD10C,1.400000*%
%ADD11R,2.250000X2.250000*%
%ADD12C,2.250000*%
%ADD13C,1.980000*%
%ADD14C,2.200000*%
%ADD15C,2.000000*%
%ADD16R,1.320800X1.320800*%
%ADD17C,1.320800*%
%ADD18C,1.800000*%
%ADD19R,1.650000X1.650000*%
%ADD20C,1.650000*%
%ADD21C,1.260000*%
%ADD22R,1.980000X1.980000*%
%ADD23C,1.935000*%
%ADD24R,1.800000X1.800000*%
%ADD25C,1.828800*%
D10*
X926660Y464820D03*
X871660Y464820D03*
X706560Y472440D03*
X761560Y472440D03*
X532316Y472440D03*
X587316Y472440D03*
X353500Y469900D03*
X408500Y469900D03*
D11*
X741240Y734060D03*
D12*
X940240Y734060D03*
D11*
X461840Y731520D03*
D12*
X660840Y731520D03*
D13*
X1038860Y441220D03*
X1038860Y666220D03*
D14*
X790780Y314420D02*
X768780Y314420D01*
D15*
X827780Y295420D02*
X827780Y275420D01*
X789780Y251420D02*
X769780Y251420D01*
D16*
X381000Y281940D03*
D17*
X381000Y307340D03*
X381000Y332740D03*
D18*
X627780Y617220D03*
X677780Y617220D03*
D19*
X1041400Y317500D03*
D20*
X1041400Y368300D03*
D21*
X342260Y622300D03*
X414660Y622300D03*
X476880Y622300D03*
X549280Y622300D03*
D22*
X523200Y319080D03*
D23*
X503200Y259080D03*
D13*
X523200Y199080D03*
X645200Y199080D03*
X645200Y319080D03*
D24*
X779780Y589280D03*
D18*
X792480Y640080D03*
X805180Y589280D03*
X817880Y640080D03*
X830580Y589280D03*
X843280Y640080D03*
X855980Y589280D03*
D19*
X911860Y220980D03*
D20*
X962660Y220980D03*
D25*
X808201Y616712D02*
X794512Y630401D01*
X794512Y638048D01*
X792480Y640080D01*
X850248Y595012D02*
X855980Y589280D01*
X850248Y595012D02*
X850248Y597427D01*
X830963Y616712D01*
X808201Y616712D01*
X566248Y629328D02*
X556308Y639268D01*
X566248Y612752D02*
X706560Y472440D01*
X539732Y639268D02*
X470848Y708152D01*
X455168Y754888D02*
X457200Y756920D01*
X566248Y629328D02*
X566248Y612752D01*
X556308Y639268D02*
X539732Y639268D01*
X470848Y708152D02*
X447621Y708152D01*
X438472Y717301D01*
X438472Y745739D01*
X447621Y754888D01*
X455168Y754888D01*
X457200Y756920D02*
X579120Y756920D01*
X640080Y695960D01*
X716280Y695960D01*
X741240Y720920D01*
X741240Y734060D01*
X853000Y563880D02*
X761560Y472440D01*
X853000Y563880D02*
X904240Y563880D01*
X904240Y680720D01*
X823612Y648227D02*
X823612Y645812D01*
X817880Y640080D01*
X856105Y680720D02*
X904240Y680720D01*
X856105Y680720D02*
X823612Y648227D01*
X761560Y269640D02*
X779780Y251420D01*
X747112Y305445D02*
X747112Y323395D01*
X761560Y337843D02*
X761560Y472440D01*
X761560Y290997D02*
X761560Y269640D01*
X747112Y323395D02*
X761560Y337843D01*
X747112Y305445D02*
X761560Y290997D01*
X513480Y731520D02*
X461840Y731520D01*
X513480Y731520D02*
X627780Y617220D01*
X669633Y597552D02*
X682608Y597552D01*
X695960Y584200D01*
X649965Y617220D02*
X627780Y617220D01*
X649965Y617220D02*
X669633Y597552D01*
X695960Y584200D02*
X774700Y584200D01*
X779780Y589280D01*
M02*
