M48
;GenerationSoftware,Autodesk,EAGLE,9.7.0*%
;CreationDate,2025-03-18T16:48:16Z*%
FMAT,2
ICI,OFF
METRIC,TZ,000.000
T10C0.660
T9C0.800
T8C0.813
T7C1.000
T6C1.100
T5C1.200
T4C1.290
T3C1.320
T2C1.500
T1C3.048
%
G90
M71
T1
X38608Y20828
X38608Y72136
X104140Y73152
X104140Y22352
T2
X74124Y73406
X94024Y73406
X46184Y73152
X66084Y73152
T3
X52320Y19908
X52320Y31908
X103886Y44122
X103886Y66622
X64520Y19908
X64520Y31908
T4
X50320Y25908
T5
X81788Y64008
X67778Y61722
X62778Y61722
X77978Y58928
X79248Y64008
X80518Y58928
X83058Y58928
X84328Y64008
X85598Y58928
T6
X104140Y36830
X104140Y31750
X91186Y22098
X96266Y22098
T7
X77978Y31442
X82778Y28542
X77978Y25142
T8
X38100Y30734
X38100Y33274
X38100Y28194
T9
X92666Y46482
X40850Y46990
X35350Y46990
X58732Y47244
X53232Y47244
X87166Y46482
X76156Y47244
X70656Y47244
T10
X34226Y62230
X41466Y62230
X47688Y62230
X54928Y62230
M30